<svg width="0" height="0" class="hidden">
  <symbol xmlns="http://www.w3.org/2000/svg" viewBox="0 0 44 44" id="camera">
    <rect x="0.5" y="0.5" width="43" height="43" rx="9.5" stroke="#121417" stroke-opacity="0.1"></rect>
    <g opacity="0.8">
      <path d="M33.1278 17.4115C33.1142 16.4714 32.94 15.5388 32.6067 14.6596C32.0233 13.1582 30.8354 11.971 29.3315 11.3899C28.462 11.0633 27.5428 10.8882 26.6123 10.8683C25.4157 10.8149 25.0363 10.8 21.9987 10.8C18.9612 10.8 18.5718 10.8 17.3839 10.8683C16.4547 10.8882 15.5355 11.0633 14.666 11.3899C13.1621 11.971 11.973 13.1582 11.3908 14.6596C11.0637 15.5276 10.8871 16.4453 10.8696 17.373C10.8162 18.5688 10.8 18.9476 10.8 21.9801C10.8 25.0127 10.8 25.4001 10.8696 26.5873C10.8883 27.5162 11.0637 28.4326 11.3908 29.3032C11.9742 30.8033 13.1621 31.9905 14.6672 32.5716C15.533 32.9094 16.4522 33.1007 17.3852 33.1305C18.583 33.1839 18.9624 33.2 22 33.2C25.0376 33.2 25.4269 33.2 26.6148 33.1305C27.544 33.1118 28.4632 32.9367 29.334 32.6101C30.8378 32.0277 32.0258 30.8405 32.6091 29.3404C32.9363 28.4711 33.1117 27.5547 33.1303 26.6246C33.1838 25.4299 33.2 25.0512 33.2 22.0174C33.1975 18.9849 33.1975 18.5999 33.1278 17.4115ZM21.9913 27.7149C18.8144 27.7149 16.2408 25.1455 16.2408 21.9739C16.2408 18.8023 18.8144 16.233 21.9913 16.233C25.1657 16.233 27.7418 18.8023 27.7418 21.9739C27.7418 25.1455 25.1657 27.7149 21.9913 27.7149ZM27.9707 17.3593C27.2281 17.3593 26.6298 16.7608 26.6298 16.0206C26.6298 15.2805 27.2281 14.6819 27.9707 14.6819C28.7108 14.6819 29.3103 15.2805 29.3103 16.0206C29.3103 16.7608 28.7108 17.3593 27.9707 17.3593Z"></path>
      <path d="M21.9931 25.479C23.928 25.479 25.4966 23.9104 25.4966 21.9755C25.4966 20.0405 23.928 18.472 21.9931 18.472C20.0581 18.472 18.4896 20.0405 18.4896 21.9755C18.4896 23.9104 20.0581 25.479 21.9931 25.479Z"></path>
    </g>
  </symbol>
  <symbol xmlns="http://www.w3.org/2000/svg" viewBox="0 0 28 28" id="facebook">
    <g opacity="0.8">
      <path d="M17.08 4.06014C17.29 4.06014 17.5 4.06014 17.92 4.06014V7.21014C17.71 7.21014 17.29 7.21014 16.87 7.21014C16.45 7.21014 16.03 7.21014 15.82 7.42014C15.61 7.63014 15.61 7.84014 15.61 8.33014C15.61 8.75014 15.61 9.03014 15.61 9.45014H17.92V12.1101H15.61V23.6601H12.04V12.0401H10.15V9.38014H12.04V8.47014C12.04 6.93014 12.25 5.81014 12.67 5.32014C13.3 4.41014 14.56 3.99014 16.45 3.99014C16.66 4.06014 16.87 4.06014 17.08 4.06014Z"></path>
    </g>
  </symbol>
  <symbol xmlns="http://www.w3.org/2000/svg" viewBox="0 0 24 24" id="fi-rr-angle-small-left">
    <path d="M12.71 13.4001C12.6171 13.4938 12.5065 13.5682 12.3846 13.619C12.2628 13.6698 12.1321 13.6959 12 13.6959C11.868 13.6959 11.7373 13.6698 11.6155 13.619C11.4936 13.5682 11.383 13.4938 11.29 13.4001L6.71003 8.81009C6.61707 8.71637 6.50647 8.64197 6.38461 8.5912C6.26275 8.54043 6.13204 8.5143 6.00003 8.5143C5.86802 8.5143 5.73731 8.54043 5.61545 8.5912C5.49359 8.64197 5.38299 8.71637 5.29003 8.81009C5.10378 8.99746 4.99924 9.25091 4.99924 9.51509C4.99924 9.77928 5.10378 10.0327 5.29003 10.2201L9.88004 14.8101C10.4425 15.3719 11.205 15.6875 12 15.6875C12.795 15.6875 13.5575 15.3719 14.12 14.8101L18.71 10.2201C18.8948 10.0338 18.9989 9.78243 19 9.52009C19.0008 9.38849 18.9756 9.25802 18.9258 9.13619C18.8761 9.01435 18.8027 8.90353 18.71 8.81009C18.6171 8.71637 18.5065 8.64197 18.3846 8.5912C18.2628 8.54043 18.1321 8.5143 18 8.5143C17.868 8.5143 17.7373 8.54043 17.6155 8.5912C17.4936 8.64197 17.383 8.71637 17.29 8.81009L12.71 13.4001Z"></path>
  </symbol>
  <symbol xmlns="http://www.w3.org/2000/svg" viewBox="0 0 40 28" id="Nav">
    <line x1="7.58698" y1="4.43939" x2="38.5" y2="4.43939" stroke="#121417" stroke-width="3" stroke-linecap="round"></line>
    <line x1="7.58698" y1="21.4091" x2="38.5" y2="21.4091" stroke="#121417" stroke-width="3" stroke-linecap="round"></line>
    <line x1="17.1522" y1="12.9242" x2="38.5" y2="12.9242" stroke="#121417" stroke-width="3" stroke-linecap="round"></line>
  </symbol>
  <symbol xmlns="http://www.w3.org/2000/svg" viewBox="0 0 32 32" id="Nav_small">
    <path d="M24 8L8 24" stroke="white" stroke-width="3" stroke-linecap="round" stroke-linejoin="round"></path>
    <path d="M8 8L24 24" stroke="white" stroke-width="3" stroke-linecap="round" stroke-linejoin="round"></path>
  </symbol>
  <symbol xmlns="http://www.w3.org/2000/svg" viewBox="0 0 28 28" id="x">
    <g opacity="0.8">
      <path clip-rule="evenodd" d="M21.21 5.24986C20.02 5.17986 17.57 5.10986 13.86 5.10986H13.37C9.80004 5.10986 7.42007 5.17986 6.23007 5.31986C4.62007 5.45986 3.50004 5.87986 2.87004 6.43986C2.31004 6.92986 1.89005 7.83986 1.75005 9.02986C1.68005 9.79986 1.61005 11.4099 1.61005 13.8599V14.2099C1.61005 16.5199 1.68004 18.1299 1.82004 18.8999C2.03004 20.0199 2.38007 20.8599 3.08007 21.3499C3.78007 21.9099 4.97005 22.2599 6.65005 22.3999C7.84005 22.4699 10.2901 22.5399 14.0001 22.5399H14.4901C18.0601 22.5399 20.4401 22.4699 21.6301 22.3299C23.2401 22.1899 24.3601 21.7699 24.9901 21.2099C25.5501 20.7199 25.97 19.8099 26.11 18.6199C26.18 17.8499 26.2501 16.2399 26.2501 13.7899V13.4399C26.2501 11.1299 26.1801 9.51986 26.0401 8.74986C25.8301 7.62986 25.4801 6.78986 24.7801 6.29986C24.0801 5.73986 22.89 5.38986 21.21 5.24986ZM18.4801 13.8599L10.7801 18.4799V9.23986L18.4801 13.8599Z"></path>
    </g>
  </symbol>
  <symbol xmlns="http://www.w3.org/2000/svg" id="instagram" viewBox="0 0 32 32">
    <path d="M28.718 10.756c-0.016-1.074-0.215-2.14-0.596-3.145-0.667-1.716-2.024-3.073-3.743-3.737-0.994-0.373-2.044-0.573-3.108-0.596-1.367-0.061-1.801-0.078-5.273-0.078s-3.917 0-5.274 0.078c-1.062 0.023-2.112 0.223-3.106 0.596-1.719 0.664-3.078 2.021-3.743 3.737-0.374 0.992-0.576 2.041-0.596 3.101-0.061 1.367-0.080 1.8-0.080 5.265s0 3.909 0.080 5.265c0.021 1.062 0.222 2.109 0.596 3.104 0.667 1.714 2.024 3.071 3.744 3.735 0.989 0.386 2.040 0.605 3.106 0.639 1.369 0.061 1.803 0.079 5.274 0.079s3.916 0 5.274-0.079c1.062-0.021 2.113-0.221 3.108-0.595 1.719-0.666 3.076-2.022 3.743-3.737 0.374-0.993 0.574-2.041 0.596-3.104 0.061-1.365 0.080-1.798 0.080-5.265-0.003-3.466-0.003-3.906-0.082-5.264zM15.99 22.531c-3.631 0-6.572-2.936-6.572-6.561s2.941-6.561 6.572-6.561c3.628 0 6.572 2.936 6.572 6.561s-2.944 6.561-6.572 6.561zM22.824 10.696c-0.849 0-1.532-0.684-1.532-1.53s0.684-1.53 1.532-1.53c0.846 0 1.531 0.684 1.531 1.53s-0.685 1.53-1.531 1.53z"></path>
    <path d="M15.992 19.976c2.211 0 4.004-1.793 4.004-4.004s-1.793-4.004-4.004-4.004c-2.211 0-4.004 1.793-4.004 4.004s1.793 4.004 4.004 4.004z"></path>
  </symbol>
  <symbol xmlns="http://www.w3.org/2000/svg" id="youtube" viewBox="0 0 32 32">
    <path d="M24.24 6c-1.36-0.080-4.16-0.16-8.4-0.16h-0.56c-4.080 0-6.8 0.080-8.16 0.24-1.84 0.16-3.12 0.64-3.84 1.28-0.64 0.56-1.12 1.6-1.28 2.96-0.080 0.88-0.16 2.72-0.16 5.52v0.4c0 2.64 0.080 4.48 0.24 5.36 0.24 1.28 0.64 2.24 1.44 2.8 0.8 0.64 2.16 1.040 4.080 1.2 1.36 0.080 4.16 0.16 8.4 0.16h0.56c4.080 0 6.8-0.080 8.16-0.24 1.84-0.16 3.12-0.64 3.84-1.28 0.64-0.56 1.12-1.6 1.28-2.96 0.080-0.88 0.16-2.72 0.16-5.52v-0.4c0-2.64-0.080-4.48-0.24-5.36-0.24-1.28-0.64-2.24-1.44-2.8-0.8-0.64-2.16-1.040-4.080-1.2zM21.12 15.84l-8.8 5.28v-10.56l8.8 5.28z"></path>
  </symbol>
    <symbol xmlns="http://www.w3.org/2000/svg" id="icon-underline" viewBox="0 0 592 32">
<path stroke="#4dc274" style="stroke: var(--color1, #4dc274)" stroke-linejoin="miter" stroke-linecap="butt" stroke-miterlimit="4" stroke-width="32" d="M0 16h592"></path>
</symbol>
    <symbol fill="none" xmlns="http://www.w3.org/2000/svg" viewBox="0 0 20 20" id="icon-check">
    <g clip-path="url(#clip0_51_406)">
      <circle cx="10" cy="10" r="10" fill="#4DC274"></circle>
      <path d="M14 7L8.5 13L6 10.2727" stroke="white" stroke-width="1.5" stroke-linecap="round" stroke-linejoin="round"></path>
    </g>
    <defs>
      <clipPath id="clip0_51_406">
        <rect width="20" height="20" fill="white"></rect>
      </clipPath>
    </defs>
  </symbol>
    <symbol fill="none" xmlns="http://www.w3.org/2000/svg" viewBox="0 0 40 40" id="close-menu">
    <path d="M30 10L10 30" stroke="white" stroke-width="3" stroke-linecap="round" stroke-linejoin="round"></path>
    <path d="M10 10L30 30" stroke="white" stroke-width="3" stroke-linecap="round" stroke-linejoin="round"></path>
  </symbol>

</svg>